<svg width="15" height="14" viewBox="0 0 15 14" fill="none" xmlns="http://www.w3.org/2000/svg">
<path d="M0.75 13.5V10.3125L10.6313 0.45C10.7812 0.3 10.95 0.1875 11.1375 0.1125C11.325 0.0375 11.5125 0 11.7 0C11.9 0 12.0906 0.0375 12.2719 0.1125C12.4531 0.1875 12.6125 0.3 12.75 0.45L13.8 1.5C13.95 1.6375 14.0625 1.79688 14.1375 1.97812C14.2125 2.15937 14.25 2.35 14.25 2.55C14.25 2.7375 14.2125 2.925 14.1375 3.1125C14.0625 3.3 13.95 3.46875 13.8 3.61875L3.9375 13.5H0.75ZM2.25 12H3.3L10.6687 4.65L10.1438 4.10625L9.6 3.58125L2.25 10.95V12ZM12.75 2.56875L11.6812 1.5L12.75 2.56875ZM10.1438 4.10625L9.6 3.58125L10.6687 4.65L10.1438 4.10625ZM8.25 13.5C9.175 13.5 10.0312 13.2687 10.8188 12.8062C11.6063 12.3438 12 11.7 12 10.875C12 10.425 11.8813 10.0375 11.6438 9.7125C11.4062 9.3875 11.0875 9.10625 10.6875 8.86875L9.58125 9.975C9.86875 10.1 10.0938 10.2375 10.2563 10.3875C10.4188 10.5375 10.5 10.7 10.5 10.875C10.5 11.1625 10.2719 11.4219 9.81563 11.6531C9.35938 11.8844 8.8375 12 8.25 12C8.0375 12 7.85938 12.0719 7.71562 12.2156C7.57187 12.3594 7.5 12.5375 7.5 12.75C7.5 12.9625 7.57187 13.1406 7.71562 13.2844C7.85938 13.4281 8.0375 13.5 8.25 13.5ZM1.18125 7.7625L2.30625 6.6375C2.05625 6.5375 1.85938 6.43437 1.71563 6.32812C1.57188 6.22188 1.5 6.1125 1.5 6C1.5 5.85 1.6125 5.7 1.8375 5.55C2.0625 5.4 2.5375 5.16875 3.2625 4.85625C4.3625 4.38125 5.09375 3.95 5.45625 3.5625C5.81875 3.175 6 2.7375 6 2.25C6 1.5625 5.725 1.01562 5.175 0.609375C4.625 0.203125 3.9 0 3 0C2.4375 0 1.93438 0.1 1.49063 0.3C1.04688 0.5 0.70625 0.74375 0.46875 1.03125C0.33125 1.19375 0.275 1.375 0.3 1.575C0.325 1.775 0.41875 1.9375 0.58125 2.0625C0.74375 2.2 0.925 2.25625 1.125 2.23125C1.325 2.20625 1.49375 2.125 1.63125 1.9875C1.80625 1.8125 2 1.6875 2.2125 1.6125C2.425 1.5375 2.6875 1.5 3 1.5C3.5125 1.5 3.89062 1.575 4.13438 1.725C4.37813 1.875 4.5 2.05 4.5 2.25C4.5 2.425 4.39062 2.58438 4.17188 2.72813C3.95312 2.87188 3.45 3.125 2.6625 3.4875C1.6625 3.925 0.96875 4.32188 0.58125 4.67812C0.19375 5.03437 0 5.475 0 6C0 6.4 0.10625 6.74062 0.31875 7.02187C0.53125 7.30312 0.81875 7.55 1.18125 7.7625Z" fill="#CBD5E1"/>
</svg>
