<svg width="62" height="62" viewBox="0 0 62 62" fill="none" xmlns="http://www.w3.org/2000/svg">
<g filter="url(#filter0_d_1_588)">
<rect x="15" y="15" width="32" height="32" rx="16" fill="#00D0FF" shape-rendering="crispEdges"/>
<path d="M22.9792 38.948C22.4349 38.948 21.969 38.7542 21.5814 38.3666C21.1938 37.979 21 37.5131 21 36.9688H24.5833C23.8472 36.9688 23.2257 36.7153 22.7188 36.2084C22.2118 35.7014 21.9583 35.0799 21.9583 34.3438V25.6771C21.9583 24.941 22.2118 24.3195 22.7188 23.8125C23.2257 23.3056 23.8472 23.0521 24.5833 23.0521H37.4167C38.1528 23.0521 38.7743 23.3056 39.2812 23.8125C39.7882 24.3195 40.0417 24.941 40.0417 25.6771V34.3438C40.0417 35.0799 39.7882 35.7014 39.2812 36.2084C38.7743 36.7153 38.1528 36.9688 37.4167 36.9688H41C41 37.5105 40.8062 37.9757 40.4186 38.3646C40.031 38.7535 39.5651 38.948 39.0208 38.948H22.9792ZM31 37.0938C31.2361 37.0938 31.434 37.0139 31.5938 36.8542C31.7535 36.6945 31.8333 36.4966 31.8333 36.2605C31.8333 36.0243 31.7535 35.8264 31.5938 35.6667C31.434 35.507 31.2361 35.4271 31 35.4271C30.7639 35.4271 30.566 35.507 30.4062 35.6667C30.2465 35.8264 30.1667 36.0243 30.1667 36.2605C30.1667 36.4966 30.2465 36.6945 30.4062 36.8542C30.566 37.0139 30.7639 37.0938 31 37.0938ZM24.5833 34.3438H37.4167V25.6771H24.5833V34.3438ZM24.5833 34.3438V25.6771V34.3438Z" fill="#0A0E14"/>
</g>
<defs>
<filter id="filter0_d_1_588" x="0" y="0" width="62" height="62" filterUnits="userSpaceOnUse" color-interpolation-filters="sRGB">
<feFlood flood-opacity="0" result="BackgroundImageFix"/>
<feColorMatrix in="SourceAlpha" type="matrix" values="0 0 0 0 0 0 0 0 0 0 0 0 0 0 0 0 0 0 127 0" result="hardAlpha"/>
<feOffset/>
<feGaussianBlur stdDeviation="7.5"/>
<feComposite in2="hardAlpha" operator="out"/>
<feColorMatrix type="matrix" values="0 0 0 0 0 0 0 0 0 0.815686 0 0 0 0 1 0 0 0 0.5 0"/>
<feBlend mode="normal" in2="BackgroundImageFix" result="effect1_dropShadow_1_588"/>
<feBlend mode="normal" in="SourceGraphic" in2="effect1_dropShadow_1_588" result="shape"/>
</filter>
</defs>
</svg>
